<svg width="20" height="20" viewBox="0 0 20 20" xmlns="http://www.w3.org/2000/svg">
    <path d="M18.1 1C18.5968 1 19 1.41354 19 1.92308V14.8462C19 15.3557 18.5968 15.7692 18.1 15.7692H5.0095L1 19V1.92308C1 1.41354 1.4032 1 1.9 1H18.1ZM17.2 2.84615H2.8V15.2015L4.3867 13.9231H17.2V2.84615ZM8.6635 5.07262L9.0658 5.70769C7.5646 6.54123 7.5907 7.87877 7.5907 8.16677C7.7302 8.14831 7.8769 8.14462 8.0227 8.15846C8.8345 8.236 9.4744 8.92 9.4744 9.76923C9.4744 10.6609 8.7688 11.3846 7.8994 11.3846C7.4161 11.3846 6.9544 11.1585 6.6628 10.84C6.1993 10.336 5.95 9.76923 5.95 8.85077C5.95 7.23538 7.0552 5.788 8.6635 5.07262V5.07262ZM13.1635 5.07262L13.5658 5.70769C12.0646 6.54123 12.0907 7.87877 12.0907 8.16677C12.2302 8.14831 12.3769 8.14462 12.5227 8.15846C13.3345 8.236 13.9744 8.92 13.9744 9.76923C13.9744 10.6609 13.2688 11.3846 12.3994 11.3846C11.9161 11.3846 11.4544 11.1585 11.1628 10.84C10.6993 10.336 10.45 9.76923 10.45 8.85077C10.45 7.23538 11.5552 5.788 13.1635 5.07262V5.07262Z"/>
</svg>
